Coordinates
version=1
nRows=17
nColumns=38
inDegrees=no

Units are S.I. units (second, meters, Newtons, ...)
If the header above contains a line with 'inDegrees', this indicates whether rotational values are in degrees (yes) or radians (no).

endheader
time	pelvis_tilt	pelvis_list	pelvis_rotation	pelvis_tx	pelvis_ty	pelvis_tz	hip_flexion_r	hip_adduction_r	hip_rotation_r	knee_angle_r	ankle_angle_r	subtalar_angle_r	mtp_angle_r	hip_flexion_l	hip_adduction_l	hip_rotation_l	knee_angle_l	ankle_angle_l	subtalar_angle_l	mtp_angle_l	lumbar_extension	lumbar_bending	lumbar_rotation	arm_flex_r	arm_add_r	arm_rot_r	elbow_flex_r	pro_sup_r	wrist_flex_r	wrist_dev_r	arm_flex_l	arm_add_l	arm_rot_l	elbow_flex_l	pro_sup_l	wrist_flex_l	wrist_dev_l
0.63	0.449703	1.41428	-2.0619	0.885764	1.31591	0.931281	0.214001	-0.212272	-0.0482388	1.30371	-0.072209	0	0	0.00322299	0.164387	-0.25255	0.22524	0.167846	0	0	-0.272487	-0.1673	-0.140249	-0.111848	-0.251379	0.240537	0.494656	0.978318	0	0	-0.132218	-0.420391	0.38191	0.71017	1.26568	0	0
0.64	0.440693	1.41493	-2.04563	0.887159	1.30629	0.932719	0.237602	-0.216672	-0.0475031	1.29656	-0.0586423	0	0	-0.0197111	0.166609	-0.238289	0.203726	0.164921	0	0	-0.271941	-0.164595	-0.149538	-0.106446	-0.253547	0.248258	0.489566	0.976819	0	0	-0.127851	-0.422022	0.379611	0.707956	1.2654	0	0
0.65	0.39441	1.41602	-1.99326	0.88839	1.29743	0.934733	0.256686	-0.196119	-0.0320795	1.28728	-0.0367758	0	0	-0.0433305	0.162296	-0.224146	0.183383	0.161139	0	0	-0.27537	-0.156023	-0.156523	-0.0982684	-0.255367	0.254243	0.482609	0.975134	0	0	-0.120136	-0.42232	0.377645	0.704395	1.263	0	0
0.66	0.369269	1.41557	-1.96029	0.889836	1.28835	0.936412	0.279468	-0.192943	-0.0391256	1.2953	-0.00109695	0	0	-0.0676951	0.16182	-0.207604	0.161617	0.156052	0	0	-0.278326	-0.150651	-0.165017	-0.0922645	-0.256841	0.259398	0.476916	0.97517	0	0	-0.113699	-0.423673	0.375752	0.703977	1.25932	0	0
0.67	0.341946	1.4155	-1.925	0.891113	1.27944	0.937984	0.297543	-0.187385	-0.0393914	1.28271	0.0223711	0	0	-0.0908021	0.159776	-0.191751	0.141316	0.150886	0	0	-0.28129	-0.144943	-0.172259	-0.0875892	-0.25756	0.26332	0.471874	0.976707	0	0	-0.106399	-0.42555	0.374115	0.704965	1.25472	0	0
0.68	0.319608	1.41533	-1.89387	0.892422	1.27056	0.939377	0.314511	-0.186115	-0.0456074	1.26575	0.0443485	0	0	-0.113176	0.157941	-0.17508	0.121695	0.145171	0	0	-0.284135	-0.139779	-0.17922	-0.0849606	-0.25796	0.264742	0.469032	0.978702	0	0	-0.0985438	-0.427728	0.373012	0.707071	1.24961	0	0
0.69	0.283796	1.41565	-1.85045	0.893549	1.26206	0.940827	0.328917	-0.17624	-0.0444252	1.2414	0.0633097	0	0	-0.133768	0.153154	-0.160214	0.104613	0.140567	0	0	-0.287861	-0.132382	-0.183916	-0.0829119	-0.258371	0.262818	0.468293	0.979927	0	0	-0.0891494	-0.429447	0.372102	0.709276	1.24412	0	0
0.7	0.25509	1.41626	-1.81363	0.894679	1.25355	0.942033	0.342975	-0.170737	-0.0485923	1.21397	0.079083	0	0	-0.152353	0.148759	-0.14714	0.0898743	0.137633	0	0	-0.290803	-0.125831	-0.188697	-0.0821124	-0.258479	0.261022	0.468421	0.981449	0	0	-0.07992	-0.431465	0.37132	0.712529	1.23833	0	0
0.71	0.22961	1.41778	-1.77975	0.895724	1.24509	0.942979	0.356566	-0.166063	-0.0545743	1.1826	0.0920851	0	0	-0.167232	0.143852	-0.137463	0.0801483	0.136927	0	0	-0.292581	-0.119623	-0.19339	-0.0824253	-0.258363	0.259568	0.46971	0.98328	0	0	-0.0706588	-0.434008	0.371356	0.71644	1.23248	0	0
0.72	0.201787	1.41721	-1.74399	0.896771	1.23644	0.943987	0.365631	-0.16207	-0.0621649	1.14633	0.10359	0	0	-0.193099	0.140853	-0.108137	0.0512212	0.122977	0	0	-0.296235	-0.113255	-0.197416	-0.0844471	-0.257976	0.250708	0.474159	0.986935	0	0	-0.0619858	-0.432877	0.358734	0.717629	1.25694	0	0
0.73	0.177446	1.41872	-1.7117	0.897575	1.2279	0.944604	0.376035	-0.157717	-0.070441	1.10693	0.112901	0	0	-0.209665	0.136049	-0.0931921	0.0367928	0.118021	0	0	-0.297382	-0.107586	-0.201076	-0.0864217	-0.256904	0.245552	0.477423	0.98709	0	0	-0.0531288	-0.43456	0.354931	0.721491	1.25694	0	0
0.74	0.155419	1.42058	-1.68134	0.898336	1.21939	0.945025	0.384527	-0.153661	-0.0805161	1.06334	0.121703	0	0	-0.22489	0.131268	-0.0788882	0.0236523	0.113229	0	0	-0.297935	-0.102422	-0.205112	-0.0881955	-0.255238	0.241431	0.479773	0.987329	0	0	-0.044617	-0.436348	0.350538	0.725875	1.25662	0	0
0.75	0.134253	1.4226	-1.65197	0.899036	1.21091	0.945244	0.391587	-0.14966	-0.0919075	1.01604	0.128413	0	0	-0.238747	0.12655	-0.0662675	0.0123986	0.109363	0	0	-0.298146	-0.0975937	-0.209109	-0.0896787	-0.253191	0.237793	0.481667	0.98719	0	0	-0.0363765	-0.438275	0.346199	0.730726	1.25589	0	0
0.76	0.109182	1.42541	-1.6198	0.899427	1.20258	0.945263	0.393218	-0.141752	-0.0923697	0.943696	0.118739	0	0	-0.250106	0.121057	-0.056918	0.00392502	0.107719	0	0	-0.297713	-0.0928043	-0.212295	-0.0902567	-0.25041	0.23476	0.48277	0.986836	0	0	-0.028453	-0.440557	0.341924	0.736095	1.25454	0	0
0.77	0.0963906	1.42836	-1.59975	0.899874	1.19415	0.944973	0.398951	-0.138834	-0.104576	0.891634	0.124416	0	0	-0.260121	0.117596	-0.0499752	4.66704e-09	0.108525	0	0	-0.296678	-0.0900657	-0.215802	-0.0912175	-0.247402	0.232113	0.483958	0.986696	0	0	-0.0211522	-0.443156	0.33843	0.742546	1.2526	0	0
0.78	0.0954601	1.43132	-1.59175	0.900352	1.18563	0.944431	0.408991	-0.14035	-0.129585	0.860105	0.143373	0	0	-0.269661	0.116088	-0.0441479	0	0.110652	0	0	-0.295303	-0.0892149	-0.21922	-0.0926205	-0.245239	0.233895	0.485819	0.980205	0	0	-0.0137645	-0.445092	0.334717	0.748274	1.25549	0	0
0.79	0.0913982	1.43463	-1.58197	0.900453	1.17714	0.943749	0.412289	-0.137484	-0.143771	0.80429	0.147885	0	0	-0.278623	0.113865	-0.0402718	0	0.113768	0	0	-0.293618	-0.0887333	-0.221188	-0.093363	-0.241632	0.231995	0.485784	0.979473	0	0	-0.00658686	-0.447473	0.332013	0.754494	1.25485	0	0
